<svg xmlns="http://www.w3.org/2000/svg" height="40px" viewBox="0 -960 960 960" width="40px" fill="#000000"><path d="M350.03-546.36q-51.36-51.37-51.36-129.84T350.03-806q51.37-51.33 129.83-51.33 78.47 0 130.31 51.33Q662-754.67 662-676.2q0 78.47-51.83 129.84Q558.33-495 479.86-495q-78.46 0-129.83-51.36ZM132-117.67v-129.86q0-44.1 22.78-78.35 22.79-34.24 59.55-52.12 67.67-31.33 133.3-47.17Q413.25-441 479.82-441q68.49 0 133.67 16 65.18 16 131.51 46.67 37.61 16.96 60.64 51.31t23.03 79.3v130.05H132Zm104.67-104.66h486.66v-21q0-13.58-8.16-25.63-8.17-12.05-20.5-18.04-56-26.33-107-37.5-51-11.17-108-11.17-55 0-108 11.17t-106.72 37.4q-12.62 5.99-20.45 18.07t-7.83 25.7v21Zm298-399.33q22-21.99 22-55 0-33.01-21.86-54.51-21.85-21.5-54.66-21.5-32.82 0-54.82 21.53t-22 54.54q0 33 21.86 54.97 21.85 21.96 54.66 21.96 32.82 0 54.82-21.99ZM480-676.33Zm0 454Z"/></svg>